# AST/ASF file generated using VICON BodyLanguage
# -----------------------------------------------
:version 1.10
:name VICON
:units
  mass 1.0
  length 0.45
  angle deg
:documentation
   .ast/.asf automatically generated from VICON data using
   VICON BodyBuilder and BodyLanguage model FoxedUp or BRILLIANT.MOD
:root
   order TX TY TZ RX RY RZ
   axis XYZ
   position 0 0 0  
   orientation 0 0 0 
:bonedata
  begin
     id 1 
     name lhipjoint
     direction 0.588788 -0.725889 0.355548 
     length 2.37778 
     axis 0 0 0  XYZ
  end
  begin
     id 2 
     name lfemur
     direction 0.34202 -0.939693 0  
     length 6.86393  
     axis 0 0 20  XYZ
    dof rx ry rz
    limits (-160.0 20.0)
           (-70.0 70.0)
           (-60.0 70.0)
  end
  begin
     id 3 
     name ltibia
     direction 0.34202 -0.939693 0   
     length 7.32851   
     axis 0 0 20   XYZ
    dof rx
    limits (-10.0 170.0)
  end
  begin
     id 4 
     name lfoot
     direction 0.0626533 -0.172138 0.983078   
     length 1.98929   
     axis -90 7.62852e-016 20   XYZ
    dof rx rz
    limits (-45.0 90.0)
           (-70.0 20.0)
  end
  begin
     id 5 
     name ltoes
     direction 1.53647e-011 -4.21734e-011 1   
     length 1.00479   
     axis -90 7.62852e-016 20   XYZ
    dof rx
    limits (-90.0 20.0)
  end
  begin
     id 6 
     name rhipjoint
     direction -0.59141 -0.724168 0.354705   
     length 2.38343  
     axis 0 0 0  XYZ 
  end
  begin
     id 7 
     name rfemur
     direction -0.34202 -0.939693 0   
     length 6.95589   
     axis 0 0 -20   XYZ
    dof rx ry rz
    limits (-160.0 20.0)
           (-70.0 70.0)
           (-70.0 60.0)
  end
  begin
     id 8 
     name rtibia
     direction -0.34202 -0.939693 0   
     length 7.32327   
     axis 0 0 -20   XYZ
    dof rx
    limits (-10.0 170.0)
 end
 begin
     id 9 
     name rfoot
     direction -0.0660461 -0.18146 0.981178   
     length 1.85272  
     axis -90 -7.62852e-016 -20   XYZ
    dof rx rz
    limits (-45.0 90.0)
           (-20.0 70.0)
  end
  begin
     id 10 
     name rtoes
     direction -1.53586e-011 -4.21988e-011 1   
     length 0.93746   
     axis -90 -7.62852e-016 -20   XYZ
    dof rx
    limits (-90.0 20.0)
  end
  begin
     id 11 
     name lowerback
     direction -0.0107982 0.991059 0.13299   
     length 1.98691   
     axis 0 0 0   XYZ
    dof rx ry rz
    limits (-20.0 45.0)
           (-30.0 30.0)
           (-30.0 30.0)
  end
  begin
     id 12 
     name upperback
     direction 0.0076296 0.999916 0.0104576   
     length 1.99501   
     axis 0 0 0   XYZ
    dof rx ry rz
    limits (-20.0 45.0)
           (-30.0 30.0)
           (-30.0 30.0)
  end
  begin
     id 13 
     name thorax
     direction 0.01176 0.998615 -0.0512909   
     length 2.03144   
     axis 0 0 0   XYZ
    dof rx ry rz
    limits (-20.0 45.0)
           (-30.0 30.0)
           (-30.0 30.0)
  end
  begin
     id 14 
     name lowerneck
     direction -0.0171909 0.999644 0.0204011   
     length 1.71818   
     axis 0 0 0   XYZ
    dof rx ry rz
    limits (-20.0 45.0)
           (-30.0 30.0)
           (-30.0 30.0)
  end
  begin
     id 15 
     name upperneck
     direction 0.0250902 0.997482 -0.0663316   
     length 1.66199   
     axis 0 0 0   XYZ
    dof rx ry rz
    limits (-20.0 45.0)
           (-30.0 30.0)
           (-30.0 30.0)
  end
  begin
     id 16
     name head
     direction 0.00881535 0.99956 -0.0283365  
     length 1.81545  
     axis 0 0 0   XYZ
    dof rx ry rz
    limits (-20.0 45.0)
           (-30.0 30.0)
           (-30.0 30.0)
  end
  begin
     id 17 
     name lclavicle
     direction 0.840411 0.486876 -0.238035  
     length 3.30409  
     axis 0 0 0   XYZ
    dof ry rz
    limits (-20.0 10.0)
           (0.0 20.0)
  end
  begin
     id 18 
     name lhumerus
     direction 1 -4.48977e-011 -5.16239e-027   
     length 4.62672   
     axis 180 -30 -90   XYZ
    dof rx ry rz
    limits (-60.0 90.0)
           (-90.0 90.0)
           (-90.0 90.0)
  end
  begin
     id 19
     name lradius
     direction 1 -4.48977e-011 -8.71171e-027   
     length 3.11018   
     axis 180 -30 -90   XYZ
    dof rx
    limits (-10.0 170.0)
  end
  begin
     id 20
     name lwrist
     direction 1 -4.48912e-011 -1.03764e-026   
     length 1.55509   
     axis 9.09556e-015 90 90   XYZ
    dof ry
    limits (-180.0 0.0)
 end
  begin
     id 21 
     name lhand
     direction 1 -4.49072e-011 -2.07528e-026   
     length 0.743834   
     axis 1.3242e-014 90 90   XYZ
    dof rx rz
    limits (-90.0 90.0)
           (-45.0 45.0)
  end
  begin
     id 22 
     name lfingers
     direction 1 -4.48909e-011 -4.15056e-026   
     length 0.599698   
     axis 2.64841e-014 90 90   XYZ
    dof rx
    limits (0.0 90.0)
  end
  begin
     id 23
     name lthumb
     direction 0.707107 -6.35013e-011 0.707107   
     length 0.86105   
     axis -90 45 2.85299e-015   XYZ
    dof rx rz
    limits (-45.0 45.0)
           (-45.0 45.0)
  end
  begin
     id 24 
     name rclavicle
     direction -0.835208 0.500237 -0.228452   
     length 3.2716  
     axis 0 0 0   XYZ 
    dof ry rz
    limits (-10.0 20.0)
           (-20.0 0.0)
  end
  begin
     id 25 
     name rhumerus
     direction -1 -4.48978e-011 -5.1953e-028  
     length 4.55919   
     axis 180 30 90   XYZ
    dof rx ry rz
    limits (-90.0 60.0)
           (-90.0 90.0)
           (-90.0 90.0)
  end
  begin
     id 26 
     name rradius
     direction -1 -4.48961e-011 -5.99546e-027   
     length 3.22748   
     axis 180 30 90   XYZ
    dof rx
    limits (-10.0 170.0)
  end
  begin
     id 27 
     name rwrist
     direction -1 -4.48986e-011 -1.03764e-026   
     length 1.61374   
     axis 9.09556e-015 -90 -90   XYZ
    dof ry
    limits (-180.0 0.0)
  end
  begin
     id 28
     name rhand
     direction -1 -4.4899e-011 -2.07528e-026   
     length 0.700882   
     axis 1.3242e-014 -90 -90   XYZ
    dof rx rz
    limits (-90.0 90.0)
           (-45.0 45.0)
  end
  begin
     id 29
     name rfingers
     direction -1 -4.48991e-011 -4.15056e-026   
     length 0.565069   
     axis 2.64841e-014 -90 -90   XYZ
    dof rx
    limits (0.0 90.0)
  end
  begin
     id 30
     name rthumb
     direction -0.707107 -6.34804e-011 0.707107   
     length 0.811329   
     axis -90 -45 -2.85299e-015   XYZ
    dof rx rz
    limits (-45.0 45.0)
           (-45.0 45.0)
  end
:hierarchy
  begin
    root lhipjoint rhipjoint lowerback
    lhipjoint lfemur
    lfemur ltibia
    ltibia lfoot
    lfoot ltoes
    rhipjoint rfemur
    rfemur rtibia
    rtibia rfoot
    rfoot rtoes
    lowerback upperback
    upperback thorax
    thorax lowerneck lclavicle rclavicle
    lowerneck upperneck
    upperneck head
    lclavicle lhumerus
    lhumerus lradius
    lradius lwrist
    lwrist lhand lthumb
    lhand lfingers
    rclavicle rhumerus
    rhumerus rradius
    rradius rwrist
    rwrist rhand rthumb
    rhand rfingers
  end

#!OML:ASF F:\VICON\USERDATA\INSTALL\SteveWalk\SteveWalk.ASF
:FULLY-SPECIFIED
:DEGREES
285
root -0.434709 16.32 17.0768 17.4313 2.89307 -0.551154
lowerback -15.7826 0.160113 1.32787
upperback -4.76714 -0.0684659 1.66283
thorax 3.78118 -0.0248557 0.984276
lowerneck -4.8812 0.0342749 0.346997
upperneck 8.79711 0.348324 -3.57148
head 3.73623 0.0316646 -1.22713
rclavicle -2.1183e-015 2.22639e-014
rhumerus -23.1198 -4.05948 -85.2186
rradius 31.4337
rwrist -8.36309
rhand -16.464 -32.0718
rfingers 7.12502
rthumb 9.75253 -61.826
lclavicle -2.1183e-015 2.22639e-014
lhumerus -53.9163 36.78 53.1478
lradius 10.823
lwrist -49.3949
lhand -11.5727 -12.8909
lfingers 7.12502
lthumb 14.4688 16.5847
rfemur -25.0186 -5.69795 25.1346
rtibia 34.6687
rfoot -26.4077 10.1107
rtoes -0.912858
lfemur -47.4487 3.89046 -21.223
ltibia 60.1996
lfoot -8.44012 2.75621
ltoes -10.0601
286
root -0.433155 16.3113 17.2795 17.5609 2.59856 -0.648202
lowerback -15.8033 0.257783 1.32502
upperback -4.88755 0.0645044 1.62328
thorax 3.6641 0.0403713 0.96865
lowerneck -4.40501 0.103624 0.199733
upperneck 8.60369 0.425302 -3.36415
head 3.57442 0.0798101 -1.12363
rclavicle -3.64646e-015 -7.55382e-015
rhumerus -22.2778 -2.76817 -85.5378
rradius 32.687
rwrist -9.35697
rhand -15.816 -32.5531
rfingers 7.12502
rthumb 10.3777 -62.277
lclavicle -3.64646e-015 -7.55382e-015
lhumerus -58.757 39.158 46.4113
lradius 10.3143
lwrist -55.3901
lhand -11.853 -13.7031
lfingers 7.12502
lthumb 14.1987 15.7916
rfemur -24.2678 -6.18574 25.2597
rtibia 34.4822
rfoot -26.3142 10.9766
rtoes 2.37375
lfemur -47.9831 3.91238 -21.229
ltibia 57.549
lfoot -9.29914 3.68063
ltoes -13.0558
287
root -0.428813 16.2995 17.4825 17.6271 2.41448 -0.750067
lowerback -15.7592 0.337908 1.37614
upperback -4.96692 0.166037 1.59926
thorax 3.55614 0.090143 0.932533
lowerneck -4.30484 0.143866 0.0287417
upperneck 8.71662 0.482756 -3.22456
head 3.59345 0.108061 -1.04508
rclavicle 3.43525e-015 -1.43125e-014
rhumerus -21.4415 -1.55328 -85.7096
rradius 34.0993
rwrist -10.3023
rhand -15.3543 -33.0294
rfingers 7.12502
rthumb 10.823 -62.7305
lclavicle 3.43525e-015 -1.43125e-014
lhumerus -60.6444 39.0748 44.2926
lradius 9.86386
lwrist -57.0919
lhand -11.4706 -12.214
lfingers 7.12502
lthumb 14.5671 17.2545
rfemur -23.3071 -6.82529 25.3472
rtibia 34.0806
rfoot -26.526 11.955
rtoes 4.25014
lfemur -48.3678 3.85993 -21.1941
ltibia 54.735
lfoot -9.83244 4.11307
ltoes -14.5471
288
root -0.416467 16.2853 17.6836 17.6447 2.22949 -0.752502
lowerback -15.6988 0.397485 1.4621
upperback -4.98329 0.23767 1.49573
thorax 3.50689 0.124754 0.787646
lowerneck -4.28904 0.187436 0.106036
upperneck 8.68527 0.539438 -3.28248
head 3.58149 0.136772 -1.07511
rclavicle -1.00386e-014 -1.43125e-014
rhumerus -20.5299 -0.631594 -85.9211
rradius 35.4143
rwrist -10.848
rhand -15.2767 -33.1071
rfingers 7.12502
rthumb 10.8979 -62.8043
lclavicle -1.00386e-014 -1.43125e-014
lhumerus -62.5068 38.9583 42.0782
lradius 9.64099
lwrist -58.2195
lhand -11.3085 -12.4281
lfingers 7.12502
lthumb 14.7233 17.0291
rfemur -22.2327 -7.83111 25.298
rtibia 33.5459
rfoot -27.0371 12.7516
rtoes 2.94237
lfemur -48.5395 3.77932 -21.3204
ltibia 51.7341
lfoot -9.74507 4.29387
ltoes -12.2761
289
root -0.399405 16.2717 17.8866 17.812 2.17994 -1.05582
lowerback -15.9209 0.506645 1.91646
upperback -4.98254 0.306683 1.45842
thorax 3.62785 0.158688 0.506256
lowerneck -4.13909 0.185557 0.24659
upperneck 8.49057 0.526531 -3.36589
head 3.48578 0.134913 -1.12569
rclavicle 4.67765e-015 -1.59028e-015
rhumerus -19.5921 0.30277 -86.0774
rradius 36.5668
rwrist -11.6115
rhand -15.745 -32.7231
rfingers 7.12502
rthumb 10.4461 -62.4435
lclavicle 4.67765e-015 -1.59028e-015
lhumerus -64.4168 38.6626 39.869
lradius 9.70841
lwrist -59.2797
lhand -10.8657 -12.7799
lfingers 7.12502
lthumb 15.1498 16.6456
rfemur -21.2829 -8.91953 25.619
rtibia 32.9839
rfoot -27.6123 13.1493
rtoes 0.235976
lfemur -48.9129 3.59408 -21.0292
ltibia 48.6114
lfoot -9.24299 4.5421
ltoes -8.14395
290
root -0.3975 16.2592 18.0881 17.9277 1.81093 -1.10135
lowerback -15.9778 0.587728 1.76555
upperback -4.9572 0.43404 1.46086
thorax 3.68477 0.221937 0.61877
lowerneck -4.12581 0.182398 0.258248
upperneck 8.32072 0.521075 -3.42214
head 3.42463 0.132199 -1.14491
rclavicle -2.11209e-016 -2.50469e-014
rhumerus -18.4074 1.367 -86.0678
rradius 37.5378
rwrist -12.3858
rhand -15.6897 -33.3204
rfingers 7.12502
rthumb 10.4995 -63.0382
lclavicle -2.11209e-016 -2.50469e-014
lhumerus -66.3548 38.3554 37.6716
lradius 9.83357
lwrist -60.1962
lhand -10.6883 -13.2793
lfingers 7.12502
lthumb 15.3208 16.1331
rfemur -20.277 -9.17877 25.5658
rtibia 32.3183
rfoot -28.0494 13.1528
rtoes -1.49668
lfemur -49.0933 3.57186 -20.9311
ltibia 45.3281
lfoot -9.02675 4.95847
ltoes -6.76231
291
root -0.404757 16.2332 18.2869 18.0428 1.06828 -1.10242
lowerback -15.9256 0.761113 1.31843
upperback -4.92055 0.730928 1.48404
thorax 3.69084 0.368875 0.951413
lowerneck -4.22108 0.19739 0.216643
upperneck 8.069 0.539204 -3.44251
head 3.35607 0.140875 -1.14157
rclavicle 1.18028e-015 3.57812e-015
rhumerus -17.1598 2.29026 -85.9127
rradius 38.5339
rwrist -12.8652
rhand -14.8576 -35.1423
rfingers 7.12502
rthumb 11.3021 -64.8178
lclavicle 1.18028e-015 3.57812e-015
lhumerus -68.0008 38.2094 35.7135
lradius 9.76189
lwrist -60.9439
lhand -10.6491 -13.3794
lfingers 7.12502
lthumb 15.3585 16.0302
rfemur -19.252 -8.69217 25.3184
rtibia 31.5022
rfoot -28.1484 13.3561
rtoes -0.724439
lfemur -49.0568 3.82528 -20.9196
ltibia 42.0005
lfoot -9.31996 5.72163
ltoes -11.2305
292
root -0.392683 16.2279 18.502 18.4816 0.533613 -1.36741
lowerback -16.5587 0.999751 1.45735
upperback -4.87169 1.00357 1.51359
thorax 4.0799 0.50401 0.968316
lowerneck -4.16604 0.219119 0.0796208
upperneck 7.77621 0.564995 -3.39221
head 3.24362 0.155131 -1.09681
rclavicle 1.70706e-014 1.66979e-014
rhumerus -16.1233 2.94496 -85.7399
rradius 39.6725
rwrist -13.1573
rhand -14.4843 -35.9822
rfingers 7.12502
rthumb 11.6621 -65.6376
lclavicle 1.70706e-014 1.66979e-014
lhumerus -69.6504 37.9862 33.8096
lradius 9.8232
lwrist -61.5416
lhand -10.1168 -12.9491
lfingers 7.12502
lthumb 15.8711 16.4205
rfemur -18.4368 -9.08733 25.3481
rtibia 30.5264
rfoot -28.0363 15.0204
rtoes 2.57657
lfemur -49.3831 3.84373 -20.5284
ltibia 38.6217
lfoot -9.42614 6.1053
ltoes -13.3035
293
root -0.363384 16.2234 18.726 19.1447 0.468688 -1.97144
lowerback -17.5572 1.24392 2.27569
upperback -4.91062 1.15295 1.55506
thorax 4.5823 0.581062 0.600092
lowerneck -4.12926 0.177044 0.026367
upperneck 7.75989 0.50364 -3.29458
head 3.22852 0.127303 -1.05754
rclavicle -9.18137e-015 -3.18055e-015
rhumerus -15.3688 3.70563 -85.6069
rradius 40.837
rwrist -14.0411
rhand -15.3843 -35.5085
rfingers 7.12502
rthumb 10.7941 -65.2111
lclavicle -9.18137e-015 -3.18055e-015
lhumerus -71.2938 37.5153 31.8507
lradius 9.92522
lwrist -62.2834
lhand -9.75004 -12.7618
lfingers 7.12502
lthumb 16.2243 16.5793
rfemur -17.8394 -10.5594 25.8503
rtibia 29.5513
rfoot -27.8245 17.6156
rtoes 6.05552
lfemur -49.8639 3.60541 -19.719
ltibia 35.2237
lfoot -9.14962 6.19591
ltoes -13.848
294
root -0.340943 16.2185 18.9406 19.4159 0.505838 -2.05609
lowerback -17.8822 1.27861 2.45491
upperback -4.96502 1.15777 1.525
thorax 4.70044 0.584393 0.47412
lowerneck -4.13629 0.170869 -0.0201605
upperneck 7.80032 0.492161 -3.19831
head 3.24248 0.123345 -1.0186
rclavicle -5.2181e-015 6.36111e-015
rhumerus -14.7111 4.74066 -85.4743
rradius 41.8227
rwrist -15.5328
rhand -16.4619 -34.9595
rfingers 7.12502
rthumb 9.75452 -64.7136
lclavicle -5.2181e-015 6.36111e-015
lhumerus -73.0449 36.8289 29.7338
lradius 10.0213
lwrist -63.0855
lhand -10.0335 -13.4962
lfingers 7.12502
lthumb 15.9513 15.8669
rfemur -16.7268 -11.4924 25.7549
rtibia 28.4737
rfoot -27.5387 18.991
rtoes 7.32415
lfemur -49.9434 3.05152 -19.2709
ltibia 31.8446
lfoot -9.0035 6.28986
ltoes -13.7634
295
root -0.341524 16.2104 19.1294 19.6602 -0.325929 -1.6981
lowerback -17.7258 1.37057 1.72881
upperback -5.07556 1.41978 1.42745
thorax 4.48889 0.709091 0.832236
lowerneck -4.27609 0.207077 -0.160702
upperneck 7.8826 0.546174 -3.09081
head 3.29698 0.147933 -0.95757
rclavicle 4.87022e-015 -3.97569e-015
rhumerus -13.9898 5.64645 -85.2928
rradius 42.8
rwrist -16.4276
rhand -17.0435 -34.4583
rfingers 7.12502
rthumb 9.19333 -64.2379
lclavicle 4.87022e-015 -3.97569e-015
lhumerus -72.8687 35.4218 30.9783
lradius 10.2015
lwrist -60.9461
lhand -9.94982 -13.6175
lfingers 7.12502
lthumb 16.032 15.7392
rfemur -15.714 -10.7464 25.0203
rtibia 27.4249
rfoot -27.3419 18.8313
rtoes 6.18189
lfemur -50.0274 2.90299 -19.251
ltibia 28.5565
lfoot -8.5545 6.8988
ltoes -14.3138
296
root -0.337034 16.195 19.3226 19.8664 -1.13633 -1.9285
lowerback -17.7096 1.61383 1.69376
upperback -5.08079 1.74403 1.44406
thorax 4.47272 0.868247 0.937889
lowerneck -4.60319 0.228859 -0.212907
upperneck 8.06943 0.587218 -3.07392
head 3.42503 0.162566 -0.943686
rclavicle -3.26877e-014 -1.39149e-014
rhumerus -13.1277 6.04753 -85.037
rradius 43.8967
rwrist -15.8355
rhand -16.8189 -32.8568
rfingers 7.12502
rthumb 9.41007 -62.6268
lclavicle -3.26877e-014 -1.39149e-014
lhumerus -73.1505 34.5973 31.2143
lradius 10.2569
lwrist -59.5833
lhand -9.32654 -12.8761
lfingers 7.12502
lthumb 16.6321 16.4313
rfemur -14.6644 -9.89463 24.8563
rtibia 26.3455
rfoot -26.7599 19.0686
rtoes 6.73958
lfemur -50.0957 3.10136 -18.7095
ltibia 25.494
lfoot -7.90093 7.29337
ltoes -14.6358
